<svg viewBox="0 0 280 80" xmlns="http://www.w3.org/2000/svg">
  <defs>
    <linearGradient id="modernGradient" x1="0%" y1="0%" x2="100%" y2="100%">
      <stop offset="0%" style="stop-color:#667eea;stop-opacity:1" />
      <stop offset="100%" style="stop-color:#764ba2;stop-opacity:1" />
    </linearGradient>
    <linearGradient id="accentGradient" x1="0%" y1="0%" x2="100%" y2="100%">
      <stop offset="0%" style="stop-color:#06d6a0;stop-opacity:1" />
      <stop offset="100%" style="stop-color:#118ab2;stop-opacity:1" />
    </linearGradient>
    <filter id="glow">
      <feGaussianBlur stdDeviation="3" result="coloredBlur"/>
      <feMerge> 
        <feMergeNode in="coloredBlur"/>
        <feMergeNode in="SourceGraphic"/>
      </feMerge>
    </filter>
  </defs>
  
  <!-- Modern geometric icon -->
  <g transform="translate(15, 5)">
    <!-- Abstract building shapes with depth -->
    <path d="M0 20 L15 5 L30 20 L30 35 L0 35 Z" fill="url(#modernGradient)" opacity="0.9"/>
    <path d="M8 10 L22 0 L35 10 L35 35 L8 35 Z" fill="url(#modernGradient)"/>
    <path d="M16 15 L28 7 L40 15 L40 35 L16 35 Z" fill="url(#accentGradient)" opacity="0.8"/>
    
    <!-- Subtle geometric details -->
    <circle cx="12" cy="20" r="1.5" fill="white" opacity="0.7"/>
    <circle cx="20" cy="15" r="1.5" fill="white" opacity="0.7"/>
    <circle cx="28" cy="20" r="1.5" fill="white" opacity="0.7"/>
    
    <!-- Modern lines -->
    <line x1="5" y1="30" x2="35" y2="30" stroke="white" stroke-width="0.5" opacity="0.5"/>
    <line x1="12" y1="25" x2="28" y2="25" stroke="white" stroke-width="0.5" opacity="0.5"/>
  </g>
  
  <!-- Company name with modern typography -->
  <text x="70" y="30" font-family="Inter, system-ui, -apple-system, sans-serif" font-size="24" font-weight="600" fill="#1a1a1a" letter-spacing="-0.5px">Admin</text>
  
  <!-- Modern plus symbol -->
  <g transform="translate(145, 15)">
    <rect x="0" y="0" width="20" height="20" rx="6" fill="url(#accentGradient)" filter="url(#glow)"/>
    <path d="M6 10 L14 10 M10 6 L10 14" stroke="white" stroke-width="2" stroke-linecap="round"/>
  </g>
  
  <!-- Clean tagline -->
  <text x="70" y="47" font-family="Inter, system-ui, -apple-system, sans-serif" font-size="10" font-weight="400" fill="#6b7280" letter-spacing="0.5px">GESTÃO DE CONDOMÍNIOS</text>
</svg>